<svg width="50" height="38" viewBox="0 0 50 38" fill="none" xmlns="http://www.w3.org/2000/svg">
<path d="M20.0469 29.9655C20.2903 30.3059 20.5154 30.6501 20.7166 30.9999C24.5653 24.3129 36.6402 19.5677 36.6402 8.9613C36.6402 6.81344 35.7894 4.8644 34.4066 3.43237C35.3405 4.73677 35.8902 6.33486 35.8902 8.06127C35.8902 18.5963 23.9787 23.3491 20.0469 29.9655Z" fill="#FA7876"/>
<g filter="url(#filter0_d_623_32)">
<path d="M20.7155 8.96142C20.7155 4.56455 17.1509 1 12.7544 1C8.35774 1 4.79346 4.56455 4.79346 8.96142C4.79346 19.5677 16.8671 24.313 20.7155 31C24.5638 24.313 36.6375 19.5679 36.6375 8.96142C36.6375 4.56455 33.0731 1 28.6765 1C24.2799 1 20.7155 4.56455 20.7155 8.96142Z" fill="url(#paint0_linear_623_32)"/>
</g>
<path d="M10.5669 20.7281C7.95899 21.1501 1.47573 23.0395 4.80509 26.4867C8.66103 30.4791 23.6303 22.6525 28.2196 20.0308C32.8088 17.4092 35.6101 15.7558 38.0449 14.1339C41.9794 11.513 43.9803 10.1951 43.9449 10.203L42.6345 8.89275C42.6759 8.88353 41.7909 9.88935 37.3947 12.8234C33.4688 15.4436 30.189 17.4092 25.0361 20.0308C18.0826 23.5685 8.03537 27.5987 6.20492 25.6085C3.9318 22.8303 11.4458 21.9997 11.8468 21.9574L11.8263 21.9387L11.821 21.9342L11.7645 21.8826L11.7439 21.864L11.7233 21.8453L11.7027 21.8263L11.6207 21.7511L11.6003 21.7324L11.5799 21.7134L11.5775 21.7114L11.5595 21.6945L11.5391 21.6756L11.5291 21.6665L11.5188 21.6567L11.4985 21.6379L11.4172 21.5618L11.3971 21.5428L11.3847 21.5314L11.3768 21.5239L11.3567 21.5048L11.3368 21.4863L11.2559 21.4093L11.2414 21.3956L11.2359 21.3901L11.2159 21.3711L11.1958 21.352L11.0961 21.2556L11.0761 21.2363L11.0563 21.217L11.052 21.2131L11.0365 21.1977L11.0167 21.1784L11.0052 21.167L10.997 21.1588L10.9772 21.1395L10.9582 21.121L10.9379 21.1007L10.8787 21.0424L10.8648 21.0287L10.859 21.0228L10.8394 21.0034L10.8199 20.9836L10.8185 20.9824L10.8004 20.9641L10.7808 20.9445L10.7721 20.936L10.7612 20.925L10.7417 20.9053L10.7259 20.8893L10.7225 20.8857L10.7029 20.866L10.6641 20.8266L10.6447 20.807L10.6338 20.796L10.6254 20.7873L10.606 20.7673L10.5669 20.7281Z" fill="url(#paint1_linear_623_32)"/>
<path d="M42.1578 10.376L39.0572 7.80993L47.5656 5.52515L44.2616 13.8072L42.1578 10.376Z" fill="#2360A7"/>
<path d="M46.7215 5.75194L47.5654 5.52525L44.2615 13.8073L43.8049 13.0628L46.7215 5.75194Z" fill="#2360A7"/>
<defs>
<filter id="filter0_d_623_32" x="0.793457" y="0" width="39.8442" height="38" filterUnits="userSpaceOnUse" color-interpolation-filters="sRGB">
<feFlood flood-opacity="0" result="BackgroundImageFix"/>
<feColorMatrix in="SourceAlpha" type="matrix" values="0 0 0 0 0 0 0 0 0 0 0 0 0 0 0 0 0 0 127 0" result="hardAlpha"/>
<feOffset dy="3"/>
<feGaussianBlur stdDeviation="2"/>
<feComposite in2="hardAlpha" operator="out"/>
<feColorMatrix type="matrix" values="0 0 0 0 0.290196 0 0 0 0 0.564706 0 0 0 0 0.886275 0 0 0 0.5 0"/>
<feBlend mode="normal" in2="BackgroundImageFix" result="effect1_dropShadow_623_32"/>
<feBlend mode="normal" in="SourceGraphic" in2="effect1_dropShadow_623_32" result="shape"/>
</filter>
<linearGradient id="paint0_linear_623_32" x1="20.7155" y1="1" x2="20.7155" y2="31" gradientUnits="userSpaceOnUse">
<stop stop-color="#4A90E2"/>
<stop offset="1" stop-color="#143862"/>
</linearGradient>
<linearGradient id="paint1_linear_623_32" x1="44.04" y1="8.79373" x2="9.97551" y2="29.0999" gradientUnits="userSpaceOnUse">
<stop stop-color="#2360A7"/>
<stop offset="1" stop-color="#94C5FF"/>
</linearGradient>
</defs>
</svg>
